<svg xmlns="http://www.w3.org/2000/svg" viewBox="0 0 200 200" width="200" height="200">
  <!-- Background circle with gradient -->
  <defs>
    <linearGradient id="bgGradient" x1="0%" y1="0%" x2="100%" y2="100%">
      <stop offset="0%" style="stop-color:#f8f9fa" />
      <stop offset="100%" style="stop-color:#e9ecef" />
    </linearGradient>
    <linearGradient id="iconGradient" x1="0%" y1="0%" x2="100%" y2="100%">
      <stop offset="0%" style="stop-color:#FF6B35" />
      <stop offset="100%" style="stop-color:#ff8660" />
    </linearGradient>
    <filter id="shadow" x="-20%" y="-20%" width="140%" height="140%">
      <feDropShadow dx="0" dy="2" stdDeviation="3" flood-color="#00000020"/>
    </filter>
  </defs>
  
  <!-- Background circle -->
  <circle cx="100" cy="100" r="98" fill="url(#bgGradient)" stroke="#dee2e6" stroke-width="2" filter="url(#shadow)"/>
  
  <!-- User icon -->
  <g transform="translate(100, 100)">
    <!-- Head -->
    <circle cx="0" cy="-25" r="30" fill="url(#iconGradient)"/>
    <!-- Body/Shoulders -->
    <path d="M -40 35 Q -40 15 -30 15 L 30 15 Q 40 15 40 35 L 40 60 Q 40 70 30 70 L -30 70 Q -40 70 -40 60 Z" fill="url(#iconGradient)"/>
  </g>
  
  <!-- Decorative paw prints -->
  <g transform="translate(155, 45)" opacity="0.2">
    <circle cx="0" cy="0" r="4" fill="#FF6B35"/>
    <circle cx="-7" cy="7" r="2.5" fill="#FF6B35"/>
    <circle cx="7" cy="7" r="2.5" fill="#FF6B35"/>
    <circle cx="-4" cy="12" r="2.5" fill="#FF6B35"/>
    <circle cx="4" cy="12" r="2.5" fill="#FF6B35"/>
  </g>
  
  <g transform="translate(45, 155)" opacity="0.15">
    <circle cx="0" cy="0" r="3" fill="#4CAF50"/>
    <circle cx="-5" cy="5" r="2" fill="#4CAF50"/>
    <circle cx="5" cy="5" r="2" fill="#4CAF50"/>
    <circle cx="-3" cy="9" r="2" fill="#4CAF50"/>
    <circle cx="3" cy="9" r="2" fill="#4CAF50"/>
  </g>
</svg> 